grf
version=1
nRows=15
nColumns=37
inDegrees=no
endheader
time	ground_force_1_vx	ground_force_1_vy	ground_force_1_vz	ground_force_1_px	ground_force_1_py	ground_force_1_pz	ground_moment_1_mx	ground_moment_1_my	ground_moment_1_mz	ground_force_2_vx	ground_force_2_vy	ground_force_2_vz	ground_force_2_px	ground_force_2_py	ground_force_2_pz	ground_moment_2_mx	ground_moment_2_my	ground_moment_2_mz	ground_force_3_vx	ground_force_3_vy	ground_force_3_vz	ground_force_3_px	ground_force_3_py	ground_force_3_pz	ground_moment_3_mx	ground_moment_3_my	ground_moment_3_mz	ground_force_4_vx	ground_force_4_vy	ground_force_4_vz	ground_force_4_px	ground_force_4_py	ground_force_4_pz	ground_moment_4_mx	ground_moment_4_my	ground_moment_4_mz
      0.00000000	      0.00000000	     -0.00000000	      0.00000000	      0.00000000	      0.00000000	      0.00000000	      0.00000000	      0.00000000	      0.00000000	      6.53047514	     15.02818203	   -478.77124023	   -290.02779128	  -1009.52964054	      0.00000000	      0.00000000	      0.00000000	    195.88956448	     -7.85982320	    -16.00375107	   -237.63276672	   -237.58467965	   -804.14420360	      0.00000000	      0.00000000	     -0.00000000	  -1495.53619385	      0.00000000	     -0.00000000	      0.00000000	      0.00000000	      0.00000000	      0.00000000	      0.00000000	      0.00000000	      0.00000000
      0.01000000	      0.00000000	     -0.00000000	      0.00000000	      0.00000000	      0.00000000	      0.00000000	      0.00000000	      0.00000000	      0.00000000	      6.70802402	     14.47457504	   -479.82708740	   -289.83110142	  -1010.40279339	      0.00000000	      0.00000000	      0.00000000	    240.92254334	     -8.26807638	    -15.91579556	   -238.26060486	   -237.15883615	   -802.69223555	      0.00000000	      0.00000000	     -0.00000000	  -1231.36568183	      0.00000000	     -0.00000000	      0.00000000	      0.00000000	      0.00000000	      0.00000000	      0.00000000	      0.00000000	      0.00000000
      0.02000000	      0.00000000	     -0.00000000	      0.00000000	      0.00000000	      0.00000000	      0.00000000	      0.00000000	      0.00000000	      0.00000000	      6.24473572	     14.24384212	   -478.13290405	   -289.58159380	  -1008.68771771	      0.00000000	      0.00000000	      0.00000000	     57.69093379	     -8.21480031	    -15.86275410	   -237.56204224	   -237.84655925	   -803.77341141	      0.00000000	      0.00000000	     -0.00000000	  -1338.63999730	      0.00000000	     -0.00000000	      0.00000000	      0.00000000	      0.00000000	      0.00000000	      0.00000000	      0.00000000	      0.00000000
      0.03000000	      0.00000000	     -0.00000000	      0.00000000	      0.00000000	      0.00000000	      0.00000000	      0.00000000	      0.00000000	      0.00000000	      6.58639145	     14.27769566	   -480.89111328	   -289.69412559	  -1010.22694379	      0.00000000	      0.00000000	      0.00000000	    176.76542937	     -7.98397205	    -16.14471747	   -237.70530701	   -238.26666528	   -803.67985876	      0.00000000	      0.00000000	     -0.00000000	  -1445.56459720	      0.00000000	     -0.00000000	      0.00000000	      0.00000000	      0.00000000	      0.00000000	      0.00000000	      0.00000000	      0.00000000
      0.04000000	      0.00000000	     -0.00000000	      0.00000000	      0.00000000	      0.00000000	      0.00000000	      0.00000000	      0.00000000	      0.00000000	      6.40653706	     14.40184498	   -480.89141846	   -290.30527946	  -1010.35546994	      0.00000000	      0.00000000	      0.00000000	    116.74996200	     -8.03751798	    -15.89631392	   -239.23490906	   -237.79962738	   -800.20939933	      0.00000000	      0.00000000	     -0.00000000	  -1385.63115419	      0.00000000	     -0.00000000	      0.00000000	      0.00000000	      0.00000000	      0.00000000	      0.00000000	      0.00000000	      0.00000000
      0.05000000	      0.00000000	     -0.00000000	      0.00000000	      0.00000000	      0.00000000	      0.00000000	      0.00000000	      0.00000000	      0.00000000	      6.70957279	     14.53060913	   -480.75225830	   -289.99539118	  -1009.38902020	      0.00000000	      0.00000000	      0.00000000	    326.12072906	     -8.00056692	    -15.91442420	   -238.68154907	   -238.67336355	   -802.62613792	      0.00000000	      0.00000000	     -0.00000000	  -1468.62928499	      0.00000000	     -0.00000000	      0.00000000	      0.00000000	      0.00000000	      0.00000000	      0.00000000	      0.00000000	      0.00000000
      0.06000000	      0.00000000	     -0.00000000	      0.00000000	      0.00000000	      0.00000000	      0.00000000	      0.00000000	      0.00000000	      0.00000000	      6.10146379	     14.81186867	   -479.97155762	   -289.85773541	  -1009.22414913	      0.00000000	      0.00000000	      0.00000000	    121.09829979	     -8.49983260	    -15.96767160	   -239.09550476	   -238.88897426	   -802.13821951	      0.00000000	      0.00000000	     -0.00000000	  -1350.30155490	      0.00000000	     -0.00000000	      0.00000000	      0.00000000	      0.00000000	      0.00000000	      0.00000000	      0.00000000	      0.00000000
      0.07000000	      0.00000000	     -0.00000000	      0.00000000	      0.00000000	      0.00000000	      0.00000000	      0.00000000	      0.00000000	      0.00000000	      6.01217794	     14.49321365	   -481.10656738	   -290.50239253	  -1009.51699002	      0.00000000	      0.00000000	      0.00000000	     47.95032231	     -8.25010440	    -16.10676121	   -238.19532776	   -237.96418990	   -802.50711656	      0.00000000	      0.00000000	     -0.00000000	  -1406.12403235	      0.00000000	     -0.00000000	      0.00000000	      0.00000000	      0.00000000	      0.00000000	      0.00000000	      0.00000000	      0.00000000
      0.08000000	      0.00000000	     -0.00000000	      0.00000000	      0.00000000	      0.00000000	      0.00000000	      0.00000000	      0.00000000	      0.00000000	      5.94209003	     14.67488194	   -482.64511108	   -290.61267588	  -1010.06866148	      0.00000000	      0.00000000	      0.00000000	     74.05155754	     -8.03486104	    -15.82549979	   -237.90960693	   -238.91369408	   -802.75570038	      0.00000000	      0.00000000	     -0.00000000	  -1512.20908237	      0.00000000	     -0.00000000	      0.00000000	      0.00000000	      0.00000000	      0.00000000	      0.00000000	      0.00000000	      0.00000000
      0.09000000	      0.00000000	     -0.00000000	      0.00000000	      0.00000000	      0.00000000	      0.00000000	      0.00000000	      0.00000000	      0.00000000	      6.55922413	     14.76443672	   -482.52032471	   -290.23882601	  -1010.17514050	      0.00000000	      0.00000000	      0.00000000	    272.21270815	     -8.28820179	    -16.14715504	   -237.21102905	   -239.09073222	   -803.57971933	      0.00000000	      0.00000000	     -0.00000000	  -1424.91680892	      0.00000000	     -0.00000000	      0.00000000	      0.00000000	      0.00000000	      0.00000000	      0.00000000	      0.00000000	      0.00000000
      0.10000000	      0.00000000	     -0.00000000	      0.00000000	      0.00000000	      0.00000000	      0.00000000	      0.00000000	      0.00000000	      0.00000000	      6.36477470	     14.26086426	   -480.46279907	   -290.93231554	  -1008.15572112	      0.00000000	      0.00000000	      0.00000000	    173.51804410	     -8.26928372	    -15.79048561	   -236.80027771	   -239.42889537	   -803.59974105	      0.00000000	      0.00000000	     -0.00000000	  -1363.12610489	      0.00000000	     -0.00000000	      0.00000000	      0.00000000	      0.00000000	      0.00000000	      0.00000000	      0.00000000	      0.00000000
      0.11000000	      0.00000000	     -0.00000000	      0.00000000	      0.00000000	      0.00000000	      0.00000000	      0.00000000	      0.00000000	      0.00000000	      6.79522181	     14.56739616	   -482.50405884	   -290.96217832	  -1009.25757037	      0.00000000	      0.00000000	      0.00000000	     96.71091286	     -7.91065688	    -15.80958107	   -236.58821106	   -239.18416298	   -802.81585332	      0.00000000	      0.00000000	     -0.00000000	  -1555.42281579	      0.00000000	     -0.00000000	      0.00000000	      0.00000000	      0.00000000	      0.00000000	      0.00000000	      0.00000000	      0.00000000
      0.12000000	      0.00000000	     -0.00000000	      0.00000000	      0.00000000	      0.00000000	      0.00000000	      0.00000000	      0.00000000	      0.00000000	      6.99315548	     14.56295967	   -482.79699707	   -291.91043806	  -1009.54282234	      0.00000000	      0.00000000	      0.00000000	    145.48168233	     -8.21976226	    -15.65230870	   -237.09080505	   -238.22289013	   -801.18414867	      0.00000000	      0.00000000	     -0.00000000	  -1372.01502201	      0.00000000	     -0.00000000	      0.00000000	      0.00000000	      0.00000000	      0.00000000	      0.00000000	      0.00000000	      0.00000000
      0.13000000	      0.00000000	     -0.00000000	      0.00000000	      0.00000000	      0.00000000	      0.00000000	      0.00000000	      0.00000000	      0.00000000	      7.28565073	     14.17679024	   -483.64062500	   -291.38766133	  -1010.00626757	      0.00000000	      0.00000000	      0.00000000	    271.39897358	     -8.03811874	    -15.22574164	   -236.37564087	   -238.18673581	   -802.70251292	      0.00000000	      0.00000000	     -0.00000000	  -1424.57354656	      0.00000000	     -0.00000000	      0.00000000	      0.00000000	      0.00000000	      0.00000000	      0.00000000	      0.00000000	      0.00000000
      0.14000000	      0.00000000	     -0.00000000	      0.00000000	      0.00000000	      0.00000000	      0.00000000	      0.00000000	      0.00000000	      0.00000000	      6.98379469	     14.49367809	   -482.93399048	   -291.73097435	  -1008.20454267	      0.00000000	      0.00000000	      0.00000000	    131.63935195	     -8.32402555	    -15.44156955	   -235.52218628	   -238.31931627	   -803.35830282	      0.00000000	      0.00000000	     -0.00000000	  -1272.62934412	      0.00000000	     -0.00000000	      0.00000000	      0.00000000	      0.00000000	      0.00000000	      0.00000000	      0.00000000	      0.00000000
